<!--?xml version="1.0" encoding="utf-8"?-->
<!-- Generator: Adobe Illustrator 24.1.1, SVG Export Plug-In . SVG Version: 6.00 Build 0)  -->
<svg version="1.1" id="_x31_0" xmlns="http://www.w3.org/2000/svg" xmlns:xlink="http://www.w3.org/1999/xlink" x="0px" y="0px" viewBox="0 0 512 512" style="width: 256px; height: 256px; opacity: 1;" xml:space="preserve">
<style type="text/css">
	.st0{fill:#374149;}
</style>
<g>
	<path class="st0" d="M512,256c0-14.414-9.207-24.215-15.93-31.371c-0.793-0.84-1.766-1.879-2.653-2.855
		c0.602-1.262,1.301-2.633,1.86-3.727c4.39-8.668,10.414-20.535,6.414-34.175c-4.042-13.786-15.621-20.574-24.07-25.531
		c-1.015-0.59-2.281-1.336-3.422-2.043c0.218-1.359,0.492-2.848,0.715-4.043c1.762-9.578,4.175-22.699-3.535-34.691
		c-7.75-12.027-20.738-15.27-30.211-17.629c-1.156-0.29-2.598-0.649-3.906-1.008c-0.172-1.355-0.328-2.84-0.449-4.035
		c-0.993-9.703-2.363-22.992-13.149-32.351c-8.902-7.719-19.816-8.614-27.25-8.614c-2.164,0-4.395,0.086-6.622,0.172
		c-1.367,0.054-2.738,0.113-4.078,0.129c-0.539-1.238-1.094-2.606-1.547-3.707c-3.691-9.058-8.742-21.461-21.778-27.426
		c-4.277-1.961-8.984-2.95-13.984-2.95c-7.786,0-14.707,2.34-20.821,4.398c-1.16,0.391-2.602,0.883-3.93,1.294
		c-0.855-1.024-1.766-2.157-2.488-3.066c-6.125-7.664-14.512-18.164-28.762-20.195c-1.465-0.211-2.965-0.317-4.457-0.317
		c-11.973,0-21.059,6.379-28.364,11.504c-1.05,0.738-2.378,1.672-3.586,2.469c-1.207-0.797-2.531-1.73-3.586-2.469
		c-7.301-5.125-16.395-11.504-28.36-11.504c-1.492,0-2.992,0.106-4.457,0.317c-14.258,2.031-22.641,12.531-28.762,20.195
		c-0.73,0.914-1.637,2.05-2.496,3.07c-1.297-0.41-2.754-0.902-3.922-1.298c-6.105-2.058-13.034-4.402-20.82-4.402
		c-5,0-9.707,0.992-13.977,2.949c-13.035,5.965-18.094,18.371-21.785,27.43c-0.453,1.098-1.008,2.465-1.543,3.707
		c-1.343-0.023-2.707-0.078-4.078-0.133c-2.231-0.09-4.462-0.172-6.626-0.172c-7.434,0-18.347,0.894-27.242,8.614
		c-10.794,9.355-12.157,22.648-13.157,32.355c-0.121,1.187-0.277,2.676-0.449,4.027c-1.309,0.363-2.75,0.723-3.906,1.008
		c-9.481,2.363-22.457,5.606-30.203,17.633c-7.718,11.988-5.305,25.106-3.543,34.691c0.223,1.191,0.496,2.684,0.715,4.043
		c-1.141,0.707-2.406,1.449-3.426,2.047c-8.454,4.953-20.031,11.746-24.066,25.531c-4,13.633,2.015,25.503,6.414,34.168
		c0.551,1.098,1.25,2.472,1.852,3.73c-0.879,0.98-1.86,2.019-2.653,2.863C9.207,231.789,0,241.59,0,256
		c0,14.414,9.207,24.21,15.926,31.371c0.793,0.832,1.774,1.878,2.653,2.855c-0.602,1.266-1.301,2.637-1.852,3.734
		c-4.398,8.664-10.414,20.531-6.414,34.172c4.035,13.781,15.613,20.57,24.07,25.531c1.015,0.59,2.273,1.332,3.418,2.039
		c-0.215,1.359-0.488,2.851-0.711,4.042c-1.762,9.582-4.183,22.703,3.539,34.692c7.75,12.031,20.726,15.266,30.207,17.633
		c1.156,0.285,2.59,0.644,3.906,1.007c0.172,1.352,0.32,2.84,0.441,4.035c1,9.699,2.367,22.993,13.157,32.348
		c8.902,7.722,19.816,8.614,27.246,8.614c2.165,0,4.391-0.082,6.622-0.168c1.371-0.059,2.734-0.118,4.078-0.137
		c0.543,1.242,1.098,2.609,1.543,3.706c3.691,9.063,8.75,21.469,21.786,27.434c4.27,1.954,8.976,2.946,13.984,2.946
		c7.786,0,14.707-2.336,20.817-4.402c1.156-0.39,2.605-0.875,3.934-1.289c0.851,1.023,1.758,2.156,2.488,3.066
		c6.121,7.668,14.504,18.168,28.754,20.195c1.465,0.207,2.965,0.316,4.461,0.316c11.969,0,21.063-6.378,28.367-11.507
		c1.051-0.734,2.375-1.664,3.582-2.465c1.207,0.801,2.535,1.73,3.586,2.465c7.305,5.129,16.391,11.507,28.364,11.507
		c1.492,0,2.992-0.105,4.457-0.316c14.25-2.027,22.637-12.527,28.762-20.199c0.73-0.91,1.633-2.043,2.488-3.066
		c1.301,0.41,2.758,0.902,3.922,1.293c6.113,2.066,13.035,4.402,20.82,4.402c5.008,0,9.707-0.992,13.985-2.949
		c13.034-5.958,18.094-18.367,21.781-27.422c0.45-1.102,1.004-2.469,1.551-3.707c1.335,0.012,2.702,0.074,4.07,0.13
		c2.234,0.09,4.466,0.171,6.63,0.171c7.434,0,18.339-0.894,27.242-8.609c10.794-9.356,12.157-22.649,13.157-32.356
		c0.121-1.195,0.273-2.679,0.441-4.035c1.317-0.359,2.75-0.714,3.91-1.003c9.477-2.364,22.457-5.602,30.207-17.634
		c7.718-11.988,5.297-25.113,3.535-34.691c-0.223-1.195-0.492-2.679-0.707-4.046c1.141-0.703,2.406-1.446,3.422-2.039
		c8.45-4.961,20.028-11.746,24.07-25.535c4-13.637-2.023-25.504-6.414-34.176c-0.559-1.09-1.258-2.461-1.86-3.726
		c0.887-0.977,1.86-2.016,2.653-2.855C502.793,280.211,512,270.414,512,256z M453.07,346c-4.481,9.793,5.637,27.578-0.153,36.562
		c-5.82,9.039-26.202,7.187-33.218,15.278c-7.035,8.109-2.316,28.023-10.422,35.05c-3.086,2.68-7.758,3.242-12.863,3.242
		c-3.766,0-7.758-0.305-11.516-0.305c-4.535,0-8.734,0.446-11.793,2.414c-8.985,5.786-10.051,26.231-19.852,30.711
		c-1.484,0.68-3.113,0.961-4.855,0.961c-8.386,0-19.266-6.519-27.734-6.519c-1.266,0-2.481,0.145-3.621,0.48
		c-10.195,2.989-16.993,22.301-27.738,23.829l-1.355,0.094c-10.145,0-21.532-15.203-31.95-15.203
		c-10.422,0-21.809,15.203-31.95,15.203l-1.359-0.094c-10.734-1.531-17.542-20.84-27.734-23.829c-1.144-0.335-2.359-0.48-3.621-0.48
		c-8.473,0-19.352,6.519-27.738,6.519c-1.742,0-3.379-0.281-4.855-0.961c-9.801-4.484-10.863-24.926-19.852-30.711
		c-3.054-1.972-7.258-2.418-11.793-2.418c-3.762,0-7.75,0.305-11.512,0.305c-5.109,0-9.781-0.566-12.867-3.238
		c-8.105-7.031-3.382-26.95-10.418-35.054c-7.016-8.09-27.402-6.238-33.222-15.282c-5.786-8.98,4.328-26.766-0.153-36.562
		c-4.434-9.695-24.519-13.664-27.554-24.039c-2.992-10.191,11.742-24.367,10.214-35.11C40.09,276.372,21.942,266.891,21.942,256
		c0-10.887,18.148-20.367,19.644-30.844c1.528-10.738-13.206-24.922-10.214-35.117c3.035-10.371,23.121-14.34,27.554-24.035
		c4.489-9.801-5.633-27.582,0.153-36.563c5.82-9.042,26.206-7.191,33.226-15.277c7.031-8.11,2.316-28.023,10.422-35.055
		c3.078-2.675,7.758-3.242,12.863-3.242c3.758,0,7.75,0.305,11.516,0.305c4.535,0,8.734-0.446,11.793-2.414
		c8.985-5.785,10.051-26.23,19.852-30.715c1.476-0.671,3.113-0.957,4.847-0.957c8.386,0,19.266,6.52,27.738,6.52
		c1.27,0,2.477-0.145,3.621-0.481c10.192-2.988,17-22.297,27.734-23.828l1.363-0.094c10.137,0,21.524,15.203,31.946,15.203
		c10.418,0,21.805-15.203,31.95-15.203l1.355,0.094c10.746,1.531,17.55,20.84,27.746,23.828c1.141,0.336,2.356,0.481,3.618,0.481
		c8.473,0,19.351-6.52,27.738-6.52c1.742,0,3.371,0.286,4.855,0.961c9.793,4.485,10.859,24.93,19.844,30.715
		c3.058,1.969,7.266,2.414,11.801,2.414c3.758,0,7.75-0.304,11.508-0.304c5.105,0,9.785,0.566,12.87,3.242
		c8.098,7.028,3.383,26.946,10.414,35.051c7.016,8.09,27.406,6.242,33.226,15.277c5.79,8.985-4.336,26.77,0.153,36.567
		c4.426,9.691,24.511,13.664,27.554,24.031c2.988,10.199-11.75,24.378-10.218,35.117c1.5,10.477,19.64,19.957,19.64,30.844
		c0,10.89-18.14,20.371-19.64,30.847c-1.531,10.738,13.206,24.918,10.218,35.114C477.59,332.328,457.504,336.305,453.07,346z" style="fill: rgb(75, 75, 75);"></path>
	<path class="st0" d="M173.89,171.059c-6.644,0-12.035,5.39-12.035,12.035c0,6.648,5.391,12.031,12.035,12.031
		c6.649,0,12.035-5.383,12.035-12.031C185.926,176.449,180.539,171.059,173.89,171.059z" style="fill: rgb(75, 75, 75);"></path>
	<path class="st0" d="M256,171.059c-6.645,0-12.035,5.39-12.035,12.035c0,6.648,5.39,12.031,12.035,12.031
		c6.645,0,12.035-5.383,12.035-12.031C268.035,176.449,262.645,171.059,256,171.059z" style="fill: rgb(75, 75, 75);"></path>
	<path class="st0" d="M338.11,171.059c-6.645,0-12.031,5.39-12.031,12.035c0,6.648,5.386,12.031,12.031,12.031
		c6.644,0,12.031-5.383,12.031-12.031C350.141,176.449,344.754,171.059,338.11,171.059z" style="fill: rgb(75, 75, 75);"></path>
	<circle class="st0" cx="173.89" cy="256" r="12.035" style="fill: rgb(75, 75, 75);"></circle>
	
		<ellipse transform="matrix(0.9224 -0.3863 0.3863 0.9224 -79.0248 118.7757)" class="st0" cx="256" cy="256" rx="12.035" ry="12.035" style="fill: rgb(75, 75, 75);"></ellipse>
	<ellipse class="st0" cx="338.11" cy="256" rx="12.031" ry="12.035" style="fill: rgb(75, 75, 75);"></ellipse>
	<path class="st0" d="M173.89,316.875c-6.644,0-12.035,5.387-12.035,12.035c0,6.641,5.391,12.031,12.035,12.031
		c6.649,0,12.035-5.39,12.035-12.031C185.926,322.262,180.539,316.875,173.89,316.875z" style="fill: rgb(75, 75, 75);"></path>
	<path class="st0" d="M256,316.875c-6.645,0-12.035,5.387-12.035,12.035c0,6.641,5.39,12.031,12.035,12.031
		c6.645,0,12.035-5.39,12.035-12.031C268.035,322.262,262.645,316.875,256,316.875z" style="fill: rgb(75, 75, 75);"></path>
	<path class="st0" d="M338.11,316.875c-6.645,0-12.031,5.387-12.031,12.035c0,6.641,5.386,12.031,12.031,12.031
		c6.644,0,12.031-5.39,12.031-12.031C350.141,322.262,344.754,316.875,338.11,316.875z" style="fill: rgb(75, 75, 75);"></path>
</g>
</svg>
