<!--?xml version="1.0" encoding="utf-8"?-->
<!-- Generator: Adobe Illustrator 18.1.1, SVG Export Plug-In . SVG Version: 6.00 Build 0)  -->

<svg version="1.1" id="_x32_" xmlns="http://www.w3.org/2000/svg" xmlns:xlink="http://www.w3.org/1999/xlink" x="0px" y="0px" viewBox="0 0 512 512" style="width: 256px; height: 256px; opacity: 1;" xml:space="preserve">
<style type="text/css">
	.st0{fill:#4B4B4B;}
</style>
<g>
	<path class="st0" d="M491.466,457.316l-0.149-1.336L323.177,92.215c-6.84-14.83-15.773-28.228-26.278-39.854
		c-10.104-11.195-21.648-20.742-34.156-28.488c-0.03-0.022-0.06-0.03-0.089-0.052c-0.014-0.015-0.014-0.015-0.014-0.015
		c-0.594-0.363-1.024-0.608-1.276-0.771l-0.089-0.067C236.585,8.049,208.127,0,178.956,0h-0.089
		c-1.618,0.022-3.324,0.03-5.089,0.081l0.267,8.568l-0.267-8.568c-20.654,0.668-41.59,5.43-61.368,14.593
		c-8.206,3.776-15.95,8.213-23.192,13.153c-6.602,4.496-12.775,9.452-18.518,14.838C58.668,53.89,48.607,66.761,40.699,80.776
		c-2.582,4.607-4.971,9.355-7.077,14.244v-0.045c-8.769,20.001-13.443,41.753-13.443,63.943c0,4.971,0.237,9.986,0.727,15.001
		c0.444,4.815,1.112,9.63,2.062,14.459c2.389,12.582,6.336,25.046,11.885,37.087l18.592,40.195
		c3.946,8.532,10.178,15.372,17.612,20.023c7.434,4.652,16.054,7.167,24.912,7.167c6.573,0,13.28-1.402,19.615-4.326
		c8.532-3.939,15.357-10.163,20.016-17.59c4.659-7.426,7.181-16.069,7.181-24.92c0-6.58-1.395-13.279-4.332-19.623l-18.592-40.254
		c-0.786-1.662-1.484-3.398-2.122-5.156l-0.03-0.067c-1.899-5.26-3.072-10.572-3.606-15.891c-0.178-2.04-0.282-4.088-0.282-6.128
		c0-4.563,0.49-9.103,1.44-13.532v-0.008c0.682-3.271,1.632-6.498,2.834-9.622c3.428-9.095,8.858-17.345,15.95-24.058l0.059-0.067
		l0.49-0.49c4.926-4.563,10.55-8.413,17.093-11.433c4.63-2.144,9.318-3.657,14.051-4.681c1.588-0.312,3.146-0.579,4.748-0.808h0.045
		c2.79-0.378,5.564-0.557,8.368-0.557c3.516,0,7.033,0.289,10.505,0.846l0,0c5.06,0.83,9.971,2.225,14.645,4.191l0.074,0.037
		c6.87,2.827,13.265,6.862,18.8,11.908l0.014,0.014c3.353,3.034,6.395,6.454,9.081,10.23l0.015,0.045
		c2.315,3.227,4.392,6.758,6.143,10.586l168.11,363.736l0.905,0.987c9.274,10.112,22.36,15.773,35.922,15.78
		c6.856,0,13.844-1.461,20.446-4.518c8.873-4.094,15.98-10.572,20.818-18.316c4.837-7.723,7.448-16.722,7.448-25.936
		C491.821,461.27,491.718,459.29,491.466,457.316z M122.885,233.573c1.87,4.065,2.76,8.272,2.76,12.441
		c0,5.602-1.603,11.099-4.555,15.817c-2.968,4.711-7.241,8.614-12.687,11.128c-4.065,1.877-8.279,2.76-12.434,2.76
		c-5.609,0-11.098-1.602-15.817-4.57c-4.718-2.952-8.621-7.225-11.158-12.678l-6.128-13.272l19.719-28.065l9.14-12.976l4.57-6.484
		c1.543-2.122,3.235-3.888,4.956-5.757c0.579-0.601,1.158-1.172,1.736-1.759c0.46,1.076,0.846,2.174,1.351,3.242l0.014,0.059
		L122.885,233.573z M102.067,129.665c-1.498,3.94-2.7,7.99-3.576,12.122v-0.022c-0.252,1.202-0.37,2.433-0.578,3.642
		c-10.49,2.53-20.906,6.558-30.892,12.182c-9.971,5.601-19.496,12.798-28.251,21.404c-0.326-2.226-0.608-4.452-0.816-6.692
		c-0.416-4.481-0.638-8.947-0.638-13.384c0-19.794,4.169-39.208,12.004-57.058l0.014-0.037c0.817-1.892,1.722-3.769,2.612-5.624
		c12.093-2.128,24.007-2.663,35.372-1.676c11.456,0.979,22.346,3.532,32.42,7.382C112.008,109.916,105.955,119.346,102.067,129.665z
		 M192.117,77.571h0.014c-4.347-0.698-8.784-1.062-13.235-1.062c-3.517,0-7.077,0.223-10.639,0.691h-0.03
		c-1.973,0.289-3.946,0.615-5.95,1.031h-0.074c-1.187,0.26-2.374,0.564-3.561,0.868c-13.057-17.034-31.708-31.301-54.394-40.47
		c4.926-3.049,9.986-5.935,15.327-8.383l0.015-0.015c17.672-8.175,36.337-12.434,54.736-13.012c1.498-0.045,3.056-0.06,4.644-0.082
		c2.106,0,4.199,0.126,6.276,0.208c6.78,10.186,12.034,20.854,15.683,31.656c3.71,10.831,5.787,21.804,6.336,32.561
		C202.37,79.752,197.295,78.402,192.117,77.571z M271.067,161.796l-17.33-37.487c-2.21-4.8-4.822-9.258-7.76-13.339l0.118,0.126
		l-0.103-0.126l-0.015-0.008v-0.008l-0.014-0.022v0.014c-0.698-1.001-1.499-1.892-2.241-2.849
		c5.223-9.444,9.289-19.838,11.856-31.032c2.582-11.106,3.724-22.946,3.294-35.18c9.17,6.254,17.716,13.554,25.313,21.952
		c9.348,10.342,17.331,22.316,23.443,35.551l2.909,6.291l-1.484,2.1l-18.265,25.958L271.067,161.796z M297.167,218.253
		l39.452-56.108l28.236,61.072l-39.468,56.13L297.167,218.253z M351.488,335.804l39.468-56.101l28.221,61.057l-39.468,56.123
		L351.488,335.804z M469.847,480.077c-3.146,5.015-7.687,9.177-13.488,11.848c-4.318,1.996-8.814,2.938-13.25,2.938
		c-8.398,0.008-16.544-3.42-22.479-9.429l-14.822-32.079l39.482-56.108l29.245,63.275c0.074,0.905,0.163,1.803,0.163,2.708
		C474.698,469.194,472.992,475.062,469.847,480.077z" style="fill: rgb(75, 75, 75);"></path>
</g>
</svg>
