<svg xmlns="http://www.w3.org/2000/svg" viewBox="0 0 195.19 19.14"><defs><style>.cls-1{fill:#64340B;}</style></defs><g id="レイヤー_2" data-name="レイヤー 2"><g id="_1" data-name="ﾑ1"><path class="cls-1" d="M59.63,9.25c-.06-2.1-3.53-3.21-5-1.58h0c-1.71,1.91,0,5.64,3,5.57,4.23-.08,5.1-6.38,10.44-7.47,4.55-.93,9.8,5.55,14.2,6.28,3,.51,6.49.32,8.45-2.22C93.91,5.77,89.81-.69,85,.93c-4.46,1.51-5.5,9.59.66,9.87,2.62.12,4.85-2.85,3.39-5.31a3.62,3.62,0,0,0-2.2-1.74h0A2.5,2.5,0,0,0,83.6,6.32c.06,1.35,1.23,2.54,2.67,1.77,1.08-.57-.08-2,1.09-2.07.71,3.47-4.34,3.07-4.56.47a3.23,3.23,0,0,1,2.32-3.38c4.14-1.08,7.6,5,3,7.24-2.87,1.41-7.22.23-7.35-3.95a3.72,3.72,0,0,0-3.22-3.57c-2.22-.12-4.43,2.47-6.66,1-2.41-1.58,0-4.5,1.87-3.63.59.27,1.25,1.26.39,1.59-.75-1.95-3.62.4-1.94,1.59,2.58,1.83,6.4-3,9.16.38A4.11,4.11,0,0,1,81,4.82c1.83-7,11.35-6,11.68.82a6.81,6.81,0,0,1-2.38,5.46,18.46,18.46,0,0,0,7.15-5.31c-1.61-2-2.5-4,.12-5.75,2.63,1.76,1.74,3.79.13,5.75a18.46,18.46,0,0,0,7.15,5.31,6.85,6.85,0,0,1-2.39-5.46c.34-6.85,9.86-7.86,11.69-.82a4.11,4.11,0,0,1,.61-1.05c2.76-3.34,6.58,1.45,9.16-.38C125.62,2.2,122.75-.15,122,1.8c-.86-.33-.2-1.32.39-1.59,1.9-.87,4.28,2.05,1.87,3.63-2.23,1.46-4.45-1.13-6.66-1a3.72,3.72,0,0,0-3.22,3.57c-.13,4.18-4.48,5.36-7.35,3.95-4.56-2.24-1.1-8.32,3-7.24a3.23,3.23,0,0,1,2.32,3.38c-.22,2.6-5.27,3-4.56-.47,1.17.11,0,1.5,1.09,2.07,1.44.77,2.61-.42,2.67-1.77a2.51,2.51,0,0,0-3.28-2.57h0a3.63,3.63,0,0,0-2.19,1.74c-1.46,2.46.77,5.43,3.39,5.31,6.16-.28,5.12-8.36.66-9.87-4.79-1.62-8.89,4.84-5.76,8.91,2,2.54,5.42,2.73,8.45,2.22,4.4-.73,9.65-7.21,14.19-6.28,5.35,1.09,6.22,7.39,10.45,7.47,3.1.07,4.76-3.66,3.05-5.57h0c-1.46-1.63-4.93-.52-5,1.58-.06,2.37,2.59,2.56,3.55,1.57.59-.61-.78-1.3-.3-2,.93.14.93,1.18.84,1.53-.33,1.41-2.45,1.87-3.76.88-4.06-3.07,2.68-6.93,5.59-3.95h0c1.72,1.93.34,5.34-2.23,6.19-4,1.33-6.67-2.81-9.06-5,1.23,2.67-1.45,5.27-4,4.81-3.46-.62-2.79-5.2,0-5.19,3.7,0,2.41,4.61-.55,2.8.64-1,1.91.71,2.2-.6.46-2.06-3.32-2.43-3.8-.22-.71,3.34,6,2.92,5.88-.36-.05-1.88-1.73-2.75-3.42-3.09-2.34-.48-4.82,1.17-7.34,2.86-4,2.66-6.77,4-11.38,3.08-2.22-.43-7.52.41-10,2.08,1.47,1.19,1.89,2.72-.2,4.47-2.08-1.75-1.66-3.28-.19-4.47-2.49-1.67-7.79-2.51-10-2.08C82.78,13.48,80,12.17,76,9.51c-2.52-1.69-5-3.34-7.34-2.86C67,7,65.3,7.86,65.25,9.74c-.09,3.28,6.59,3.7,5.87.36-.47-2.21-4.25-1.84-3.79.22.29,1.31,1.56-.44,2.2.6-3,1.81-4.25-2.78-.55-2.8,2.79,0,3.46,4.57,0,5.19-2.53.46-5.21-2.14-4-4.81-2.4,2.17-5,6.31-9.06,5-2.57-.85-3.95-4.26-2.23-6.19h0c2.91-3,9.65.88,5.59,4-1.31,1-3.43.53-3.76-.88-.09-.35-.09-1.39.84-1.53.48.69-.89,1.38-.3,2,1,1,3.61.8,3.55-1.57Zm38-3.62C98.94,4,99.65,2.08,97.59.7c-2,1.38-1.34,3.25,0,4.93Zm0,.31a18.77,18.77,0,0,1-7.85,6,16.93,16.93,0,0,1,7.85,2.58,17,17,0,0,1,7.86-2.58,18.86,18.86,0,0,1-7.86-6Zm0,12.5c1.7-1.42,1.34-2.66,0-3.64-1.33,1-1.69,2.22,0,3.64Z"/><polygon class="cls-1" points="52.79 12.63 0 12.63 0.56 12.29 0 11.97 52.17 11.97 52.79 12.63 52.79 12.63"/><polygon class="cls-1" points="142.4 12.63 195.19 12.63 194.63 12.29 195.19 11.97 143.02 11.97 142.4 12.63 142.4 12.63"/><polygon class="cls-1" points="95.66 18.78 0.08 18.78 0.64 18.14 0.08 17.54 95.02 17.54 95.66 18.78 95.66 18.78"/><polygon class="cls-1" points="99.53 18.78 195.11 18.78 194.55 18.14 195.11 17.54 100.17 17.54 99.53 18.78 99.53 18.78"/></g></g></svg>