<svg xmlns="http://www.w3.org/2000/svg" viewBox="0 0 151.71 22.09"><defs><style>.cls-1{fill:#64340B;fill-rule:evenodd;}</style></defs><g id="レイヤー_2" data-name="レイヤー 2"><g id="_1" data-name="ﾑ1"><path class="cls-1" d="M87.21,9c0,1.1,31.56,2.91,31.56-.09L127,10.88l8.86-3.07c4.41,2.33,14.76,6,15.09-2,.23-5.42-6.4-6.43-8.15-3A2.74,2.74,0,0,0,143,5.66a2,2,0,1,1,0,1.23c-4.14-4.21,2.34-9.17,6.73-5.75a6,6,0,0,1,.82,8.09A5.4,5.4,0,0,1,147.77,11a5.35,5.35,0,0,1,2.74,1.82,6,6,0,0,1-.82,8.09c-4.39,3.41-10.87-1.54-6.73-5.75a1.94,1.94,0,1,1,0,1.22,2.76,2.76,0,0,0-.23,2.85c1.75,3.45,8.38,2.43,8.15-3-.33-8-10.68-4.34-15.09-2L127,11.2l-8.18,1.94c0-3-31.56-1.2-31.56-.09L78.8,11l8.41-2Zm44.84,2,3.61-1.22L138.14,11l-2.48,1.22L132.05,11ZM32.94,9l-8.18,1.93L15.9,7.81c-4.41,2.33-14.76,6-15.1-2C.58.38,7.21-.63,9,2.82a2.72,2.72,0,0,1-.23,2.84,2,2,0,0,0-3.79.65,2,2,0,0,0,3.82.58C12.89,2.68,6.41-2.28,2,1.14A6,6,0,0,0,1.2,9.23,5.4,5.4,0,0,0,3.94,11,5.35,5.35,0,0,0,1.2,12.86,6,6,0,0,0,2,21c4.39,3.41,10.87-1.54,6.73-5.75a2,2,0,1,0,0,1.22A2.74,2.74,0,0,1,9,19.27C7.21,22.72.58,21.7.8,16.29c.34-8,10.69-4.34,15.1-2l8.86-3.07,8.18,1.94c0-3,32.12-1.19,32.12-.09l8.42-2L65.06,9c0,1.1-32.12,2.92-32.12-.09Zm43.17.62A1.47,1.47,0,1,0,77.58,11a1.47,1.47,0,0,0-1.47-1.47ZM19.66,11,16.05,9.82,13.57,11l2.48,1.22L19.66,11Z"/></g></g></svg>