<svg xmlns="http://www.w3.org/2000/svg" viewBox="0 0 195.19 19.14"><defs><style>.cls-1{fill:#64340B;}</style></defs><g id="レイヤー_2" data-name="レイヤー 2"><g id="_1" data-name="ﾑ1"><path class="cls-1" d="M59.63,9.88c-.06,2.1-3.53,3.22-5,1.58h0c-1.71-1.92,0-5.64,3-5.58,4.23.09,5.1,6.39,10.44,7.48,4.55.93,9.8-5.55,14.2-6.29,3-.5,6.49-.31,8.45,2.23,3.13,4.06-1,10.53-5.76,8.91-4.46-1.51-5.5-9.59.66-9.87,2.62-.12,4.85,2.85,3.39,5.31a3.66,3.66,0,0,1-2.2,1.74h0a2.5,2.5,0,0,1-3.27-2.57c.06-1.35,1.23-2.54,2.67-1.78,1.08.58-.08,2,1.09,2.08C88.07,9.65,83,10,82.8,12.64A3.24,3.24,0,0,0,85.12,16c4.14,1.08,7.6-5,3-7.25-2.87-1.4-7.22-.23-7.35,4a3.73,3.73,0,0,1-3.22,3.57c-2.22.11-4.43-2.48-6.66-1-2.41,1.58,0,4.49,1.87,3.63.59-.27,1.25-1.26.39-1.59-.75,1.94-3.62-.41-1.94-1.59,2.58-1.83,6.4,3,9.16-.39a3.8,3.8,0,0,0,.61-1c1.83,7,11.35,6,11.68-.81A6.81,6.81,0,0,0,90.32,8a18.36,18.36,0,0,1,7.15,5.31c-1.61,2-2.5,4,.12,5.75,2.63-1.76,1.74-3.8.13-5.75A18.36,18.36,0,0,1,104.87,8a6.85,6.85,0,0,0-2.39,5.46c.34,6.84,9.86,7.86,11.69.81a3.8,3.8,0,0,0,.61,1c2.76,3.35,6.58-1.44,9.16.39,1.68,1.18-1.19,3.53-1.94,1.59-.86.33-.2,1.32.39,1.59,1.9.86,4.28-2.05,1.87-3.63-2.23-1.47-4.45,1.12-6.66,1a3.73,3.73,0,0,1-3.22-3.57c-.13-4.19-4.48-5.36-7.35-4-4.56,2.24-1.1,8.33,3,7.25a3.24,3.24,0,0,0,2.32-3.39c-.22-2.6-5.27-3-4.56.48,1.17-.12,0-1.5,1.09-2.08,1.44-.76,2.61.43,2.67,1.78a2.51,2.51,0,0,1-3.28,2.57h0a3.67,3.67,0,0,1-2.19-1.74c-1.46-2.46.77-5.43,3.39-5.31,6.16.28,5.12,8.36.66,9.87-4.79,1.62-8.89-4.85-5.76-8.91,2-2.54,5.42-2.73,8.45-2.23,4.4.74,9.65,7.22,14.19,6.29,5.35-1.09,6.22-7.39,10.45-7.48,3.1-.06,4.76,3.66,3.05,5.58h0c-1.46,1.64-4.93.52-5-1.58-.06-2.36,2.59-2.55,3.55-1.57.59.62-.78,1.3-.3,2,.93-.13.93-1.18.84-1.53-.33-1.4-2.45-1.87-3.76-.87-4.06,3.07,2.68,6.93,5.59,3.94h0c1.72-1.93.34-5.34-2.23-6.18-4-1.33-6.67,2.8-9.06,5,1.23-2.66-1.45-5.27-4-4.81-3.46.62-2.79,5.2,0,5.19,3.7,0,2.41-4.61-.55-2.79.64,1,1.91-.71,2.2.59.46,2.07-3.32,2.44-3.8.22-.71-3.33,6-2.91,5.88.36-.05,1.88-1.73,2.75-3.42,3.1-2.34.48-4.82-1.18-7.34-2.86-4-2.66-6.77-4-11.38-3.08-2.22.42-7.52-.42-10-2.08,1.47-1.2,1.89-2.72-.2-4.47-2.08,1.75-1.66,3.27-.19,4.47-2.49,1.66-7.79,2.5-10,2.08C82.78,5.66,80,7,76,9.63c-2.52,1.68-5,3.34-7.34,2.86-1.69-.35-3.37-1.22-3.42-3.1C65.16,6.12,71.84,5.7,71.12,9c-.47,2.22-4.25,1.85-3.79-.22.29-1.3,1.56.45,2.2-.59C66.57,6.4,65.28,11,69,11c2.79,0,3.46-4.57,0-5.19-2.53-.46-5.21,2.15-4,4.81-2.4-2.17-5-6.3-9.06-5-2.57.84-3.95,4.25-2.23,6.18h0c2.91,3,9.65-.87,5.59-3.94-1.31-1-3.43-.53-3.76.87-.09.35-.09,1.4.84,1.53.48-.69-.89-1.37-.3-2,1-1,3.61-.79,3.55,1.57Zm38,3.63c1.35,1.68,2.06,3.55,0,4.93-2-1.38-1.34-3.25,0-4.93Zm0-.32a18.66,18.66,0,0,0-7.85-6,17,17,0,0,0,7.85-2.59,17,17,0,0,0,7.86,2.59,18.75,18.75,0,0,0-7.86,6ZM97.59.7c1.7,1.42,1.34,2.66,0,3.63-1.33-1-1.69-2.21,0-3.63Z"/><polygon class="cls-1" points="52.79 6.5 0 6.5 0.56 6.84 0 7.17 52.17 7.17 52.79 6.5 52.79 6.5"/><polygon class="cls-1" points="142.4 6.5 195.19 6.5 194.63 6.84 195.19 7.17 143.02 7.17 142.4 6.5 142.4 6.5"/><polygon class="cls-1" points="95.66 0.27 0.08 0.27 0.64 0.91 0.08 1.51 95.02 1.51 95.66 0.27 95.66 0.27"/><polygon class="cls-1" points="99.53 0.27 195.11 0.27 194.55 0.91 195.11 1.51 100.17 1.51 99.53 0.27 99.53 0.27"/></g></g></svg>