<!--?xml version="1.0" encoding="utf-8"?-->
<!-- Generator: Adobe Illustrator 22.1.0, SVG Export Plug-In . SVG Version: 6.00 Build 0)  -->
<svg version="1.1" id="_x33_" xmlns="http://www.w3.org/2000/svg" xmlns:xlink="http://www.w3.org/1999/xlink" x="0px" y="0px" viewBox="0 0 590.859 800" style="enable-background:new 0 0 590.859 800;" xml:space="preserve">
<style type="text/css">
	.st0{fill:#fff;}
</style>
<g>
	<path class="st0" d="M452.5,549.812c8.17-8.16,119.731-171.431,130.611-220.402c10.89-48.991,24.191-249.217-117.001-272.114
		c-84.351-70.741-231.294-65.301-299.314-29.93C98.765,62.736,66.115,114.437,57.945,133.498
		c-5.34,12.474,8.001,34.274,17.834,47.834c-10.352,23.683-22.846,56.394-17.834,66.446c8.17,16.32,5.44,38.101,5.44,38.101
		S19.854,351.17,6.254,362.06c-13.611,10.88,2.72,38.101,38.09,35.371c19.04,0,8.16,32.661,8.16,32.661s-2.71,19.04,10.88,24.48
		c0,10.88-5.44,19.05,5.45,24.5c10.89,5.44,13.61,19.031,10.89,29.911c-2.72,10.899-2.72,54.43,32.651,57.15
		c35.37,2.73,73.461,0,73.461,0s21.77,0,19.049,16.33c-2.72,16.33-5.44,70.751-5.44,70.751s-81.64,76.181-111.561,117.002
		c-17.108,23.324-5.44,29.93,5.44,27.21c0,0,182.302-65.301,234.013-57.151c51.701,8.17,111.561,19.061,111.561,19.061
		s40.811,10.88,24.49-43.531c-7.084-23.614-27.21-155.113-27.21-155.113s2.999-5.719,7.931-15.762
		C448.913,548.697,451.852,550.47,452.5,549.812z"></path>
</g>
</svg>
